<svg width="88" height="32" viewBox="0 0 88 32" fill="none" xmlns="http://www.w3.org/2000/svg">
<path d="M0.877333 0.733333H6.49333V20.424H18.6613V25H0.877333V0.733333ZM30.1571 25.2773C28.1927 25.2773 26.4247 24.8729 24.8531 24.064C23.3047 23.232 22.0913 22.088 21.2131 20.632C20.3349 19.176 19.8958 17.5236 19.8958 15.6747C19.8958 13.8258 20.3349 12.1733 21.2131 10.7173C22.0913 9.26133 23.3047 8.12889 24.8531 7.32C26.4247 6.488 28.1927 6.072 30.1571 6.072C32.1216 6.072 33.878 6.488 35.4265 7.32C36.9749 8.12889 38.1882 9.26133 39.0665 10.7173C39.9447 12.1733 40.3838 13.8258 40.3838 15.6747C40.3838 17.5236 39.9447 19.176 39.0665 20.632C38.1882 22.088 36.9749 23.232 35.4265 24.064C33.878 24.8729 32.1216 25.2773 30.1571 25.2773ZM30.1571 20.84C31.5438 20.84 32.6762 20.3778 33.5545 19.4533C34.4558 18.5058 34.9065 17.2462 34.9065 15.6747C34.9065 14.1031 34.4558 12.8551 33.5545 11.9307C32.6762 10.9831 31.5438 10.5093 30.1571 10.5093C28.7705 10.5093 27.6265 10.9831 26.7251 11.9307C25.8238 12.8551 25.3731 14.1031 25.3731 15.6747C25.3731 17.2462 25.8238 18.5058 26.7251 19.4533C27.6265 20.3778 28.7705 20.84 30.1571 20.84ZM63.2386 6.34933V21.88C63.2386 25.3004 62.3488 27.8427 60.5693 29.5067C58.7897 31.1707 56.1897 32.0027 52.7693 32.0027C50.9666 32.0027 49.2564 31.7831 47.6386 31.344C46.0208 30.9049 44.6804 30.2693 43.6173 29.4373L45.7666 25.5547C46.5524 26.2018 47.5462 26.7102 48.7479 27.08C49.9497 27.4729 51.1515 27.6693 52.3533 27.6693C54.2253 27.6693 55.6004 27.2418 56.4786 26.3867C57.3799 25.5547 57.8306 24.2836 57.8306 22.5733V21.776C56.4208 23.3244 54.4564 24.0987 51.9373 24.0987C50.227 24.0987 48.6555 23.7289 47.2226 22.9893C45.8128 22.2267 44.6919 21.1636 43.8599 19.8C43.0279 18.4364 42.6119 16.8649 42.6119 15.0853C42.6119 13.3058 43.0279 11.7342 43.8599 10.3707C44.6919 9.00711 45.8128 7.95556 47.2226 7.216C48.6555 6.45333 50.227 6.072 51.9373 6.072C54.6413 6.072 56.6982 6.96178 58.1079 8.74133V6.34933H63.2386ZM53.0119 19.6613C54.4448 19.6613 55.6119 19.2453 56.5133 18.4133C57.4377 17.5582 57.8999 16.4489 57.8999 15.0853C57.8999 13.7218 57.4377 12.624 56.5133 11.792C55.6119 10.9369 54.4448 10.5093 53.0119 10.5093C51.579 10.5093 50.4004 10.9369 49.4759 11.792C48.5515 12.624 48.0893 13.7218 48.0893 15.0853C48.0893 16.4489 48.5515 17.5582 49.4759 18.4133C50.4004 19.2453 51.579 19.6613 53.0119 19.6613ZM77.1467 25.2773C75.1823 25.2773 73.4143 24.8729 71.8427 24.064C70.2943 23.232 69.0809 22.088 68.2027 20.632C67.3245 19.176 66.8854 17.5236 66.8854 15.6747C66.8854 13.8258 67.3245 12.1733 68.2027 10.7173C69.0809 9.26133 70.2943 8.12889 71.8427 7.32C73.4143 6.488 75.1823 6.072 77.1467 6.072C79.1111 6.072 80.8676 6.488 82.416 7.32C83.9645 8.12889 85.1778 9.26133 86.056 10.7173C86.9343 12.1733 87.3734 13.8258 87.3734 15.6747C87.3734 17.5236 86.9343 19.176 86.056 20.632C85.1778 22.088 83.9645 23.232 82.416 24.064C80.8676 24.8729 79.1111 25.2773 77.1467 25.2773ZM77.1467 20.84C78.5334 20.84 79.6658 20.3778 80.544 19.4533C81.4454 18.5058 81.896 17.2462 81.896 15.6747C81.896 14.1031 81.4454 12.8551 80.544 11.9307C79.6658 10.9831 78.5334 10.5093 77.1467 10.5093C75.76 10.5093 74.616 10.9831 73.7147 11.9307C72.8134 12.8551 72.3627 14.1031 72.3627 15.6747C72.3627 17.2462 72.8134 18.5058 73.7147 19.4533C74.616 20.3778 75.76 20.84 77.1467 20.84Z" fill="white"/>
</svg>
