<svg width="71" height="68" viewBox="0 0 71 68" fill="none" xmlns="http://www.w3.org/2000/svg">
<path d="M44.6203 7.99628H2.33057V52.4838H32.2331L46.8181 59.8096V52.4838H55.1428V17.9194L44.6203 7.99628ZM45.4861 17.8528V12.8579L50.7474 17.8528H45.4861ZM5.32748 10.9932H42.4892V20.8497H52.2125V49.5535H43.8878V55.0145L32.9657 49.5535H5.32748V10.9932ZM67.1305 49.8865H68.9952V13.7903C68.9952 12.2364 68.4513 10.9044 67.3636 9.79442C66.2758 8.68446 64.9549 8.12947 63.401 8.12947C61.847 8.12947 60.5151 8.68446 59.4051 9.79442C58.2951 10.9044 57.7402 12.2364 57.7402 13.7903V49.8865H59.6049L57.7402 55.8137L63.401 59.6098L68.9952 55.8137L67.1305 49.8865ZM66.0649 13.7903V46.9561H60.6705V13.7903C60.6705 13.0355 60.9369 12.4028 61.4696 11.8923C62.0024 11.3817 62.6462 11.1264 63.401 11.1264C64.1558 11.1264 64.7885 11.3817 65.299 11.8923C65.8096 12.4028 66.0649 13.0355 66.0649 13.7903ZM62.735 49.8865H64.0004L65.5321 54.6149L63.401 56.0135L61.2033 54.6149L62.735 49.8865ZM45.3529 40.0299H12.1205C11.7209 40.0299 11.3768 39.8856 11.0882 39.5971C10.7996 39.3085 10.6553 38.9644 10.6553 38.5648C10.6553 38.1652 10.7996 37.8211 11.0882 37.5325C11.3768 37.2439 11.7209 37.0996 12.1205 37.0996H45.3529C45.7525 37.0996 46.0966 37.2439 46.3852 37.5325C46.6738 37.8211 46.8292 38.1652 46.8514 38.5648C46.8736 38.9644 46.7404 39.3085 46.4518 39.5971C46.1632 39.8856 45.7969 40.0299 45.3529 40.0299ZM10.6553 30.24C10.6553 29.8404 10.7996 29.4964 11.0882 29.2078C11.3768 28.9192 11.7209 28.7749 12.1205 28.7749H45.3529C45.7969 28.7749 46.1632 28.9192 46.4518 29.2078C46.7404 29.4964 46.8847 29.8404 46.8847 30.24C46.8847 30.6396 46.7404 30.9837 46.4518 31.2723C46.1632 31.5609 45.7969 31.7052 45.3529 31.7052H12.1205C11.7209 31.7052 11.3768 31.5609 11.0882 31.2723C10.7996 30.9837 10.6553 30.6396 10.6553 30.24ZM10.6553 21.9153C10.6553 21.5157 10.7996 21.1716 11.0882 20.883C11.3768 20.5944 11.7209 20.4501 12.1205 20.4501H30.1686C30.5681 20.4501 30.9122 20.5944 31.2008 20.883C31.4894 21.1716 31.6337 21.5268 31.6337 21.9486C31.6337 22.3704 31.4894 22.7255 31.2008 23.0141C30.9122 23.3027 30.5681 23.447 30.1686 23.447H12.1205C11.7209 23.447 11.3768 23.3027 11.0882 23.0141C10.7996 22.7255 10.6553 22.3593 10.6553 21.9153Z" fill="white"/>
</svg>
