<svg width="79" height="77" viewBox="0 0 79 77" fill="none" xmlns="http://www.w3.org/2000/svg">
<g clip-path="url(#clip0_337_112)">
<path d="M57.8867 64.433L69.9391 52.3807C70.2938 52.0264 70.4933 51.5457 70.4938 51.0444V34.4913C70.4938 33.2375 69.9957 32.035 69.1091 31.1484C68.2225 30.2618 67.02 29.7637 65.7661 29.7637C64.5123 29.7637 63.3098 30.2618 62.4232 31.1484C61.5366 32.035 61.0385 33.2375 61.0385 34.4913V48.6742" stroke="#F8F8F8" stroke-width="3.24181" stroke-linecap="round" stroke-linejoin="round"/>
<path d="M57.8764 51.826L60.5806 49.1218C60.7233 48.9803 60.8363 48.8119 60.9132 48.6263C60.99 48.4407 61.0291 48.2416 61.0282 48.0407C61.026 47.7577 60.946 47.4807 60.7971 47.24C60.6481 46.9994 60.4359 46.8043 60.1835 46.676L58.7873 45.9795C57.6044 45.388 56.2654 45.1836 54.96 45.3952C53.6545 45.6067 52.4486 46.2235 51.513 47.1582L48.6922 49.9791C47.51 51.1609 46.8456 52.764 46.8453 54.4357V64.433M20.0553 64.433L8.00295 52.3807C7.64821 52.0264 7.44868 51.5457 7.44824 51.0444V34.4913C7.44824 33.2375 7.94633 32.035 8.83294 31.1484C9.71954 30.2618 10.922 29.7637 12.1759 29.7637C13.4297 29.7637 14.6322 30.2618 15.5188 31.1484C16.4054 32.035 16.9035 33.2375 16.9035 34.4913V48.6742" stroke="#F8F8F8" stroke-width="3.24181" stroke-linecap="round" stroke-linejoin="round"/>
<path d="M20.0526 51.825L17.3484 49.1208C17.066 48.8313 16.9058 48.4442 16.9009 48.0398C16.9009 47.463 17.2287 46.9367 17.7456 46.6751L19.1418 45.9785C20.3247 45.3871 21.6636 45.1827 22.9691 45.3942C24.2746 45.6058 25.4805 46.2226 26.416 47.1573L29.2369 49.9781C30.4191 51.16 31.0834 52.763 31.0838 54.4347V64.4321M44.2172 39.218H33.7092V31.8649H26.3562V21.357H33.7092V14.0039H44.2172V21.357H51.5703V31.8649H44.2172V39.218Z" stroke="#F8F8F8" stroke-width="3.24181" stroke-linecap="round" stroke-linejoin="round"/>
</g>
<defs>
<clipPath id="clip0_337_112">
<rect width="78.6896" height="75.6423" fill="white" transform="matrix(1 0 0 -1 0.0507812 76.3813)"/>
</clipPath>
</defs>
</svg>
